<?xml version="1.0" standalone="no"?>
<!DOCTYPE svg PUBLIC "-//W3C//DTD SVG 20010904//EN"
 "http://www.w3.org/TR/2001/REC-SVG-20010904/DTD/svg10.dtd">
<svg version="1.0" xmlns="http://www.w3.org/2000/svg"
 width="205.000000pt" height="57.000000pt" viewBox="0 0 205.000000 57.000000"
 preserveAspectRatio="xMidYMid meet">

<g transform="translate(0.000000,57.000000) scale(0.100000,-0.100000)"
fill="#000000" stroke="none">
<path d="M17 553 c-4 -3 -7 -89 -7 -190 l0 -183 315 0 315 0 0 190 0 190 -308
0 c-170 0 -312 -3 -315 -7z m603 -188 l0 -165 -290 0 -290 0 0 165 0 165 290
0 290 0 0 -165z"/>
<path d="M810 355 c0 -10 10 -15 30 -15 l30 0 0 -86 c0 -64 3 -85 13 -82 8 3
13 32 15 86 l3 82 29 0 c20 0 30 5 30 15 0 12 -15 15 -75 15 -60 0 -75 -3 -75
-15z"/>
<path d="M1210 269 c0 -76 3 -100 13 -97 7 3 14 28 17 59 4 42 9 55 24 57 26
5 36 -15 36 -70 0 -27 5 -48 10 -48 6 0 10 26 10 59 0 66 -14 86 -55 79 -23
-5 -25 -2 -25 28 0 24 -5 34 -15 34 -12 0 -15 -18 -15 -101z"/>
<path d="M1435 350 c-15 -16 -16 -25 -7 -44 8 -19 7 -26 -9 -39 -27 -24 -24
-63 7 -83 22 -15 31 -16 61 -5 25 10 38 10 46 2 6 -6 17 -11 25 -11 12 0 11 4
-2 25 -10 16 -14 34 -10 50 7 28 -10 35 -20 8 -6 -14 -12 -11 -41 17 -19 19
-35 42 -35 52 0 27 30 35 46 13 17 -23 33 -11 18 13 -16 25 -57 26 -79 2z m43
-113 c25 -27 20 -37 -19 -37 -30 0 -46 25 -28 46 16 19 22 18 47 -9z"/>
<path d="M1650 270 l0 -100 50 0 c38 0 50 4 50 15 0 11 -11 15 -40 15 l-40 0
0 85 c0 50 -4 85 -10 85 -6 0 -10 -40 -10 -100z"/>
<path d="M1776 361 c-7 -11 18 -33 27 -24 4 3 7 12 7 20 0 15 -26 18 -34 4z"/>
<path d="M1862 358 c-7 -7 -12 -20 -12 -29 0 -10 -6 -20 -12 -23 -10 -5 -10
-7 0 -12 7 -4 12 -27 12 -65 0 -33 4 -59 10 -59 6 0 10 27 10 60 0 53 2 60 20
60 11 0 20 5 20 10 0 6 -9 10 -21 10 -15 0 -19 4 -15 16 3 9 6 18 6 20 0 2 7
4 15 4 8 0 15 5 15 10 0 14 -33 13 -48 -2z"/>
<path d="M955 286 c-36 -55 14 -131 72 -110 36 12 27 27 -17 28 -25 1 -36 6
-38 19 -3 14 4 17 42 17 39 0 46 3 46 19 0 51 -77 70 -105 27z m79 -11 c4 -12
-3 -15 -29 -15 -33 0 -43 8 -28 23 12 13 51 7 57 -8z"/>
<path d="M1097 292 c-35 -38 -8 -122 39 -122 24 0 55 20 49 31 -4 5 -14 5 -26
-2 -30 -16 -51 6 -47 50 3 32 6 36 33 38 49 2 51 3 35 13 -24 16 -66 11 -83
-8z"/>
<path d="M1780 240 c0 -40 4 -70 10 -70 6 0 10 30 10 70 0 40 -4 70 -10 70 -6
0 -10 -30 -10 -70z"/>
<path d="M1936 288 c-23 -32 -20 -65 9 -93 28 -28 53 -31 81 -10 20 15 15 18
-30 15 -26 -2 -45 12 -46 33 0 4 20 7 45 7 48 0 56 11 35 51 -15 28 -74 26
-94 -3z m78 -13 c4 -12 -3 -15 -29 -15 -33 0 -43 8 -28 23 12 13 51 7 57 -8z"/>
<path d="M10 146 c0 -32 14 -36 141 -36 110 0 110 0 103 -22 -11 -37 -25 -48
-59 -48 -20 0 -35 -6 -39 -15 -5 -13 18 -15 171 -15 155 0 174 2 163 15 -7 8
-22 15 -35 15 -25 0 -55 29 -55 53 0 14 16 17 118 19 l117 3 3 28 3 27 -315 0
-316 0 0 -24z"/>
<path d="M561 31 c-11 -7 -10 -10 5 -14 38 -10 96 -7 91 6 -4 15 -76 21 -96 8z"/>
</g>
</svg>
